<svg xmlns="http://www.w3.org/2000/svg" version="1.1" xmlns:xlink="http://www.w3.org/1999/xlink" xmlns:svgjs="http://svgjs.dev/svgjs" width="1440" height="560" preserveAspectRatio="none" viewBox="0 0 1440 560"><g mask="url(&quot;#SvgjsMask1069&quot;)" fill="none"><rect width="1440" height="560" x="0" y="0" fill="rgba(229, 230, 230, 1)"></rect><path d="M1084.9164106781977 448.80053502931645L1120.2152259798302 317.56397576681985 1004.9453392927011 346.3039864024815z" fill="rgba(185, 28, 28, 0.44)" class="triangle-float2"></path><path d="M582.2860040634977 275.1497238913578L420.7418964872652 216.1780666012523 444.2586946045475 364.6572863345502z" fill="rgba(185, 28, 28, 0.44)" class="triangle-float1"></path><path d="M763.263035469139 155.57558726053833L672.533356009814 136.29039855324098 688.9704126785305 282.0275120958772z" fill="rgba(185, 28, 28, 0.44)" class="triangle-float1"></path><path d="M90.62821100431168 513.6098389892709L161.78157830370745 408.12063385293595-14.86099413202328 442.4564716898751z" fill="rgba(185, 28, 28, 0.44)" class="triangle-float1"></path><path d="M-80.41706378461996 259.76521007515333L-27.92976597730339 389.6758308493884 101.98085479693168 337.18853304207187 49.493556989615115 207.27791226783677z" fill="rgba(185, 28, 28, 0.44)" class="triangle-float2"></path><path d="M1212.2812651423435 544.9513475869899L1316.0032015987674 597.9248864835653 1312.4500837693668 496.17690437680847z" fill="rgba(185, 28, 28, 0.44)" class="triangle-float2"></path><path d="M630.9083961158989 367.1859542715433L609.6380539166935 232.8902989936542 475.3423986388044 254.16064119285954 496.61274083800976 388.45629647074867z" fill="rgba(185, 28, 28, 0.44)" class="triangle-float1"></path><path d="M1101.2171161266372 197.31596541017478L1079.1095585860683 71.93777625419378 953.7313694300872 94.04533379476271 975.8389269706562 219.42352295074372z" fill="rgba(185, 28, 28, 0.44)" class="triangle-float2"></path><path d="M893.2439153925034 145.3802983240897L1010.2254040688935 145.49178420989193 960.6486433737276 56.05294036414949z" fill="rgba(185, 28, 28, 0.44)" class="triangle-float2"></path><path d="M216.8260810771116 116.18449415152598L330.9026897000424 114.30202832850088 281.03545272176956 27.929440249055006z" fill="rgba(185, 28, 28, 0.44)" class="triangle-float2"></path><path d="M919.0738236906158 562.0868789219749L992.6818961465929 491.00438961605187 847.9913343846928 488.4788064659977z" fill="rgba(185, 28, 28, 0.44)" class="triangle-float3"></path><path d="M1053.2754774895325 344.489388700984L1058.808127128973 238.92014468551054 953.2388831134995 233.38749504607011 947.706233474059 338.9567390615436z" fill="rgba(185, 28, 28, 0.44)" class="triangle-float1"></path><path d="M1379.8913569865874 257.5159494855427L1289.0789287663665 196.2621932158622 1227.825172496686 287.0746214360831 1318.637600716907 348.3283777057636z" fill="rgba(185, 28, 28, 0.44)" class="triangle-float3"></path><path d="M1452.1220477836112 99.34210747746633L1427.842547074136-14.883962603433233 1313.6164769932366 9.395538106041755 1337.8959777027117 123.62160818694132z" fill="rgba(185, 28, 28, 0.44)" class="triangle-float2"></path><path d="M117.45085093225785 576.3778418355671L47.99473501958933 456.076320178432-72.30678663754574 525.5324360911005-2.850670724877233 645.8339577482357z" fill="rgba(185, 28, 28, 0.44)" class="triangle-float3"></path><path d="M451.5190960214559 580.8221727364803L407.9189511646504 472.90802739435514 300.00480582252527 516.5081722511605 343.6049506793307 624.4223175932857z" fill="rgba(185, 28, 28, 0.44)" class="triangle-float2"></path><path d="M703.6492786220698 528.8034344590233L840.0188065036465 568.0474548350601 812.1144375959864 447.1803541244057z" fill="rgba(185, 28, 28, 0.44)" class="triangle-float2"></path><path d="M1426.113635735117 287.25612410365216L1333.8282667258475 209.81950500491484 1256.3916476271102 302.1048740141845 1348.6770166363797 379.5414931129218z" fill="rgba(185, 28, 28, 0.44)" class="triangle-float1"></path><path d="M1039.5428168013977 128.61373849658585L956.3738299681883 74.60316692855582 902.3632584001582 157.7721537617653 985.5322452333677 211.78272532979534z" fill="rgba(185, 28, 28, 0.44)" class="triangle-float3"></path><path d="M487.74512808263046 434.67878974513343L429.1066963420476 314.1608140124997 361.90644534188624 410.13271853095z" fill="rgba(185, 28, 28, 0.44)" class="triangle-float3"></path></g><defs><mask id="SvgjsMask1069"><rect width="1440" height="560" fill="#ffffff"></rect></mask><style>
                @keyframes float1 {
                    0%{transform: translate(0, 0)}
                    50%{transform: translate(-10px, 0)}
                    100%{transform: translate(0, 0)}
                }

                .triangle-float1 {
                    animation: float1 5s infinite;
                }

                @keyframes float2 {
                    0%{transform: translate(0, 0)}
                    50%{transform: translate(-5px, -5px)}
                    100%{transform: translate(0, 0)}
                }

                .triangle-float2 {
                    animation: float2 4s infinite;
                }

                @keyframes float3 {
                    0%{transform: translate(0, 0)}
                    50%{transform: translate(0, -10px)}
                    100%{transform: translate(0, 0)}
                }

                .triangle-float3 {
                    animation: float3 6s infinite;
                }
            </style></defs></svg>